<svg width="30" height="30" viewBox="0 0 30 30" fill="none" xmlns="http://www.w3.org/2000/svg">
<g clip-path="url(#clip0)">
<path d="M22.7627 0H7.23709C6.18978 0 5.33783 0.852011 5.33783 1.89932V28.1007C5.33783 29.148 6.18984 30.0001 7.23715 30.0001H22.7627C23.81 30.0001 24.662 29.1481 24.662 28.1007V1.89932C24.6619 0.852011 23.81 0 22.7627 0ZM6.28958 4.77375H23.7102V24.6138H6.28958V4.77375ZM7.23709 0.951755H22.7627C23.2851 0.951755 23.7102 1.37681 23.7102 1.89932V4.13924H6.28958V1.89932C6.28958 1.37681 6.71464 0.951755 7.23709 0.951755ZM22.7627 29.0482H7.23709C6.71464 29.0482 6.28952 28.6232 6.28952 28.1007V25.2483H23.7102V28.1007C23.7102 28.6232 23.2851 29.0482 22.7627 29.0482Z" fill="#D1A954"/>
<path d="M14.9998 25.6689C14.1404 25.6689 13.4412 26.3682 13.4412 27.2276C13.4412 28.087 14.1404 28.7862 14.9998 28.7862C15.8592 28.7862 16.5584 28.087 16.5584 27.2276C16.5584 26.3682 15.8593 25.6689 14.9998 25.6689ZM14.9998 28.1517C14.4903 28.1517 14.0757 27.7371 14.0757 27.2276C14.0757 26.718 14.4903 26.3034 14.9998 26.3034C15.5094 26.3034 15.9239 26.718 15.9239 27.2276C15.9239 27.7371 15.5094 28.1517 14.9998 28.1517Z" fill="#D1A954"/>
<path d="M12.8426 3.02318H17.1573C17.3325 3.02318 17.4745 2.88111 17.4745 2.70592C17.4745 2.53074 17.3325 2.38867 17.1573 2.38867H12.8426C12.6674 2.38867 12.5254 2.53074 12.5254 2.70592C12.5254 2.88111 12.6674 3.02318 12.8426 3.02318Z" fill="#D1A954"/>
<path d="M11.7007 3.02318C11.7838 3.02318 11.8656 2.98955 11.9247 2.93054C11.9837 2.87089 12.0179 2.78968 12.0179 2.70592C12.0179 2.62217 11.9837 2.54095 11.9247 2.48131C11.8656 2.4223 11.7837 2.38867 11.7007 2.38867C11.6169 2.38867 11.5356 2.4223 11.4761 2.48131C11.4171 2.54032 11.3834 2.62217 11.3834 2.70592C11.3834 2.78968 11.4171 2.87089 11.4761 2.93054C11.5351 2.98955 11.6169 3.02318 11.7007 3.02318Z" fill="#D1A954"/>
</g>
<defs>
<clipPath id="clip0">
<rect width="30" height="30" fill="white"/>
</clipPath>
</defs>
</svg>
