<svg width="22" height="22" viewBox="0 0 22 22" fill="none" xmlns="http://www.w3.org/2000/svg">
<path d="M17.8123 15.2592C17.7251 15.2592 17.6378 15.2272 17.5697 15.1627L13.4878 11.3333C13.3452 11.2 13.3381 10.9751 13.4722 10.8325C13.6063 10.6885 13.8298 10.6821 13.9738 10.8169L18.0557 14.6462C18.1983 14.7796 18.2054 15.0045 18.0713 15.1471C18.001 15.2216 17.9074 15.2592 17.8123 15.2592Z" fill="#D1A954"/>
<path d="M4.18739 15.2593C4.09304 15.2593 3.99869 15.2217 3.92846 15.1472C3.79438 15.0047 3.80147 14.7798 3.94406 14.6464L8.02739 10.817C8.17069 10.6837 8.39557 10.6894 8.52894 10.8327C8.66301 10.9752 8.65592 11.2001 8.51333 11.3335L4.43001 15.1628C4.3619 15.2274 4.27465 15.2593 4.18739 15.2593Z" fill="#D1A954"/>
<path d="M20.2265 18.8196H1.77351C0.79595 18.8196 0 18.0244 0 17.0461V4.95295C0 3.97468 0.79595 3.17944 1.77351 3.17944H20.2265C21.2041 3.17944 22 3.97468 22 4.95295V17.0461C22 18.0244 21.2041 18.8196 20.2265 18.8196ZM1.77351 3.88885C1.18683 3.88885 0.709403 4.36627 0.709403 4.95295V17.0461C0.709403 17.6328 1.18683 18.1102 1.77351 18.1102H20.2265C20.8132 18.1102 21.2906 17.6328 21.2906 17.0461V4.95295C21.2906 4.36627 20.8132 3.88885 20.2265 3.88885H1.77351Z" fill="#D1A954"/>
<path d="M10.9999 12.7819C10.5281 12.7819 10.0564 12.6251 9.69744 12.3122L0.588705 4.36622C0.441149 4.23781 0.425543 4.01364 0.553944 3.86538C0.683765 3.71782 0.907227 3.70434 1.05478 3.83133L10.1635 11.7766C10.6168 12.1718 11.383 12.1718 11.8356 11.7766L20.933 3.8441C21.0798 3.71569 21.3033 3.72988 21.4338 3.87815C21.5622 4.02641 21.5473 4.24987 21.3997 4.37899L12.3024 12.3115C11.9427 12.6251 11.4717 12.7819 10.9999 12.7819Z" fill="#D1A954"/>
</svg>
