<svg width="30" height="22" viewBox="0 0 30 22" fill="none" xmlns="http://www.w3.org/2000/svg">
<rect width="30" height="22" fill="white"/>
<path d="M21.8123 15.2592C21.7251 15.2592 21.6378 15.2272 21.5697 15.1627L17.4878 11.3333C17.3452 11.2 17.3381 10.9751 17.4722 10.8325C17.6063 10.6885 17.8298 10.6821 17.9738 10.8169L22.0557 14.6462C22.1983 14.7796 22.2054 15.0045 22.0713 15.1471C22.0011 15.2216 21.9074 15.2592 21.8123 15.2592Z" fill="#D1A954"/>
<path d="M8.18739 15.2593C8.09304 15.2593 7.99869 15.2217 7.92846 15.1472C7.79438 15.0047 7.80147 14.7798 7.94406 14.6464L12.0274 10.817C12.1707 10.6837 12.3956 10.6894 12.5289 10.8327C12.663 10.9752 12.6559 11.2001 12.5133 11.3335L8.43001 15.1628C8.3619 15.2274 8.27465 15.2593 8.18739 15.2593Z" fill="#D1A954"/>
<path d="M24.2265 18.8196H5.77351C4.79595 18.8196 4 18.0244 4 17.0461V4.95295C4 3.97468 4.79595 3.17944 5.77351 3.17944H24.2265C25.2041 3.17944 26 3.97468 26 4.95295V17.0461C26 18.0244 25.2041 18.8196 24.2265 18.8196ZM5.77351 3.88885C5.18683 3.88885 4.7094 4.36627 4.7094 4.95295V17.0461C4.7094 17.6328 5.18683 18.1102 5.77351 18.1102H24.2265C24.8132 18.1102 25.2906 17.6328 25.2906 17.0461V4.95295C25.2906 4.36627 24.8132 3.88885 24.2265 3.88885H5.77351Z" fill="#D1A954"/>
<path d="M14.9999 12.7819C14.5281 12.7819 14.0564 12.6251 13.6974 12.3122L4.58871 4.36622C4.44115 4.23781 4.42554 4.01364 4.55394 3.86538C4.68377 3.71782 4.90723 3.70434 5.05478 3.83133L14.1635 11.7766C14.6168 12.1718 15.383 12.1718 15.8356 11.7766L24.933 3.8441C25.0798 3.71569 25.3033 3.72988 25.4338 3.87815C25.5622 4.02641 25.5473 4.24987 25.3997 4.37899L16.3024 12.3115C15.9427 12.6251 15.4717 12.7819 14.9999 12.7819Z" fill="#D1A954"/>
</svg>
