<svg width="30" height="30" viewBox="0 0 30 30" fill="none" xmlns="http://www.w3.org/2000/svg">
<path d="M15.0976 6.57446C12.9834 6.57446 11.2625 8.29534 11.2625 10.4096C11.2625 12.5238 12.9834 14.2447 15.0976 14.2447C17.2119 14.2447 18.9328 12.5238 18.9328 10.4096C18.9328 8.29534 17.2119 6.57446 15.0976 6.57446ZM15.0976 13.149C13.5871 13.149 12.3583 11.9201 12.3583 10.4096C12.3583 8.8991 13.5871 7.67021 15.0976 7.67021C16.6081 7.67021 17.837 8.8991 17.837 10.4096C17.837 11.9201 16.6081 13.149 15.0976 13.149Z" fill="#D1A954"/>
<path d="M22.4302 3.07741C20.4458 1.09301 17.8073 0 15.001 0C12.1943 0 9.55626 1.09301 7.57186 3.07741C3.89945 6.74927 3.44307 13.658 6.58349 17.8437L15.001 30L23.406 17.8607C26.559 13.658 26.1026 6.74927 22.4302 3.07741ZM22.5173 17.2203L15.001 28.0748L7.4727 17.2033C4.62429 13.4054 5.03246 7.16621 8.3471 3.85211C10.1244 2.0748 12.4874 1.09575 15.001 1.09575C17.5147 1.09575 19.8777 2.0748 21.6555 3.85211C24.9702 7.16621 25.3783 13.4054 22.5173 17.2203Z" fill="#D1A954"/>
</svg>
